<svg xmlns="http://www.w3.org/2000/svg" width="512" height="512" viewBox="0 0 512 512">
  <defs>
    <linearGradient id="bg" x1="0" y1="0" x2="1" y2="1">
      <stop offset="0" stop-color="#101a33"/>
      <stop offset="1" stop-color="#070b18"/>
    </linearGradient>
    <radialGradient id="ocean" cx="0.38" cy="0.34" r="0.75">
      <stop offset="0" stop-color="#2a6bd6"/>
      <stop offset="0.55" stop-color="#16447f"/>
      <stop offset="1" stop-color="#0b2347"/>
    </radialGradient>
    <linearGradient id="acc" x1="0" y1="0" x2="1" y2="1">
      <stop offset="0" stop-color="#3ad0c9"/>
      <stop offset="1" stop-color="#5b9dff"/>
    </linearGradient>
    <clipPath id="globe"><circle cx="256" cy="256" r="166"/></clipPath>
  </defs>
  <rect width="512" height="512" rx="112" fill="url(#bg)"/>
  <!-- atmosphere glow -->
  <circle cx="256" cy="256" r="182" fill="none" stroke="#3a78ff" stroke-opacity="0.28" stroke-width="10"/>
  <circle cx="256" cy="256" r="166" fill="url(#ocean)"/>
  <g clip-path="url(#globe)" fill="#2f9e6d">
    <path d="M150 150 q40 -28 84 -14 q34 12 22 46 q-10 30 -48 30 q-44 2 -64 -22 q-16 -22 6 -40 Z"/>
    <path d="M250 224 q44 -10 70 14 q26 24 6 56 q-20 30 -64 26 q-46 -4 -52 -40 q-6 -40 40 -56 Z"/>
    <path d="M132 300 q34 -16 60 6 q22 20 4 48 q-18 26 -56 22 q-34 -4 -38 -36 q-2 -28 30 -40 Z"/>
    <path d="M300 330 q30 -6 44 16 q12 22 -10 40 q-24 18 -50 4 q-22 -14 -10 -38 q8 -18 26 -22 Z"/>
  </g>
  <!-- specular highlight -->
  <ellipse cx="200" cy="196" rx="56" ry="34" fill="#ffffff" opacity="0.12"/>
  <!-- location target marker -->
  <g transform="translate(330,196)">
    <circle r="38" fill="none" stroke="url(#acc)" stroke-width="9"/>
    <circle r="9" fill="url(#acc)"/>
    <rect x="-2.5" y="-58" width="5" height="22" rx="2" fill="url(#acc)"/>
    <rect x="-2.5" y="36" width="5" height="22" rx="2" fill="url(#acc)"/>
    <rect x="-58" y="-2.5" width="22" height="5" rx="2" fill="url(#acc)"/>
    <rect x="36" y="-2.5" width="22" height="5" rx="2" fill="url(#acc)"/>
  </g>
</svg>
